<?xml version="1.0" encoding="UTF-8" standalone="no"?>
<svg width="60px" height="60px" viewBox="0 0 60 60" version="1.1" xmlns="http://www.w3.org/2000/svg" xmlns:xlink="http://www.w3.org/1999/xlink" xmlns:sketch="http://www.bohemiancoding.com/sketch/ns">
    <!-- Generator: Sketch 3.2.2 (9983) - http://www.bohemiancoding.com/sketch -->
    <title>Broccoli</title>
    <desc>Created with Sketch.</desc>
    <defs></defs>
    <g id="stroked" stroke="none" stroke-width="1" fill="none" fill-rule="evenodd" sketch:type="MSPage">
        <g id="Kitchen" sketch:type="MSLayerGroup" transform="translate(-727.000000, -958.000000)" stroke="#535353" stroke-width="2" stroke-linecap="round" stroke-linejoin="round">
            <g id="Broccoli" transform="translate(732.000000, 963.000000)" sketch:type="MSShapeGroup">
                <path d="M18.256836,27.1897963 C20.7183871,28.9584773 23.7375632,30 27,30 C29.8755955,30 32.5621991,29.1908293 34.8445374,27.7877614 L34.8445374,27.7877614 C36.4017678,29.7451663 38.8043428,31 41.5,31 C46.1944204,31 50,27.1944204 50,22.5 C50,17.9626186 46.4447723,14.2556052 41.9680238,14.0126668 C41.4596337,6.18864657 34.9525348,0 27,0 C18.9381206,0 12.3616989,6.36000001 12.0144197,14.3363151 C11.2135459,14.1170669 10.3704442,14 9.5,14 C4.25329488,14 0,18.2532949 0,23.5 C0,28.7467051 4.25329488,33 9.5,33 C13.4381181,33 16.8165653,30.6037636 18.256836,27.1897963 Z" id="Oval-726"></path>
                <path d="M17.4175054,43.6805441 C15.370784,38.5770083 11.5814172,32.9242763 11.5814172,32.9242763 L14.869466,31.8847396 L21.2639343,39.8407586 L25.182626,29.9253196 L28.7887571,29.8110297 L27.5541631,39.8407585 L38.2793042,30.4525868 L41.7534001,31.0928447 C41.7534001,31.0928447 34.5023195,38.4837801 31.6626817,45.0906727 C28.823044,51.6975653 26.6674091,53.3194582 26.6674091,53.3194582 C26.6674091,53.3194582 20.0031335,52.8316977 19.4795472,52.2940161 C19.2365975,52.0445261 19.1893707,48.0987214 17.4175054,43.6805441 Z" id="Path-1635"></path>
                <path d="M33,24 C36.3137085,24 39,21.5375661 39,18.5 C39,15.4624339 36.3137085,13 33,13" id="Oval-729"></path>
                <path d="M18,22 C20.209139,22 22,20.4329966 22,18.5 C22,16.5670034 20.209139,15 18,15" id="Oval-729" transform="translate(20.000000, 18.500000) rotate(-119.000000) translate(-20.000000, -18.500000) "></path>
                <path d="M7,23 C8.65685425,23 10,21.8807119 10,20.5 C10,19.1192881 8.65685425,18 7,18" id="Oval-729" transform="translate(8.500000, 20.500000) rotate(-119.000000) translate(-8.500000, -20.500000) "></path>
                <path d="M41,26 C42.6568542,26 44,24.8807119 44,23.5" id="Oval-729" transform="translate(42.500000, 24.750000) rotate(-119.000000) translate(-42.500000, -24.750000) "></path>
                <path d="M28,11 C28,7.13400675 24.8659932,4 21,4" id="Oval-729" transform="translate(24.500000, 7.500000) rotate(-50.000000) translate(-24.500000, -7.500000) "></path>
            </g>
        </g>
    </g>
</svg>