<?xml version="1.0" encoding="UTF-8" standalone="no"?>
<svg width="60px" height="60px" viewBox="0 0 60 60" version="1.1" xmlns="http://www.w3.org/2000/svg" xmlns:xlink="http://www.w3.org/1999/xlink" xmlns:sketch="http://www.bohemiancoding.com/sketch/ns">
    <!-- Generator: Sketch 3.2.2 (9983) - http://www.bohemiancoding.com/sketch -->
    <title>Bonefish</title>
    <desc>Created with Sketch.</desc>
    <defs></defs>
    <g id="stroked" stroke="none" stroke-width="1" fill="none" fill-rule="evenodd" sketch:type="MSPage">
        <g id="Kitchen" sketch:type="MSLayerGroup" transform="translate(-7.000000, -358.000000)" stroke="#535353" stroke-width="2" stroke-linejoin="round">
            <g id="Bonefish" transform="translate(39.707107, 387.671573) rotate(-315.000000) translate(-39.707107, -387.671573) translate(24.207107, 356.671573)" sketch:type="MSShapeGroup">
                <path d="M28.0724563,18.8786797 C27.8649055,19.0161955 26.9351525,18.8786797 26.6157567,18.8786797 L3.97002973,18.8786797 C3.97002973,18.8786797 11.2501673,0.878679656 16.7928932,0.878679656 C21.9815545,0.878679656 31.1140204,16.8634453 28.0724563,18.8786797 Z" id="Triangle-24" stroke-linecap="round"></path>
                <path d="M24.2928932,8.87867966 L20.2928932,14.8786797" id="Line" stroke-linecap="square"></path>
                <path d="M13.5857864,8.58578644 L13.5857864,9.58578644" id="Line" stroke-linecap="square"></path>
                <path d="M15.5857864,19.5857864 L15.5857864,48.5857864" id="Line" stroke-linecap="square"></path>
                <path d="M17.1958222,54.0857864 C15.3617406,51.9434592 12.6375393,50.5857864 9.59623653,50.5857864 C6.55493377,50.5857864 3.83073246,51.9434592 1.99665085,54.0857864 C3.83073246,56.2281137 6.55493377,57.5857864 9.59623653,57.5857864 C12.6375393,57.5857864 15.3617406,56.2281137 17.1958222,54.0857864 Z" id="Oval-650" stroke-linecap="round" transform="translate(9.596237, 54.085786) rotate(-42.000000) translate(-9.596237, -54.085786) "></path>
                <path d="M29.174922,54.0857864 C27.3408404,51.9434592 24.6166391,50.5857864 21.5753363,50.5857864 C18.5340336,50.5857864 15.8098323,51.9434592 13.9757507,54.0857864 C15.8098323,56.2281137 18.5340336,57.5857864 21.5753363,57.5857864 C24.6166391,57.5857864 27.3408404,56.2281137 29.174922,54.0857864 Z" id="Oval-650" stroke-linecap="round" transform="translate(21.575336, 54.085786) scale(-1, 1) rotate(-42.000000) translate(-21.575336, -54.085786) "></path>
                <path d="M15.5857864,23.5857864 L30.5857864,27.5857864" id="Line" stroke-linecap="square"></path>
                <path d="M0.585786438,23.5857864 L15.5857864,27.5857864" id="Line" stroke-linecap="square" transform="translate(8.085786, 25.585786) scale(-1, 1) translate(-8.085786, -25.585786) "></path>
                <path d="M15.5857864,29.5857864 L26.5857864,32.5857864" id="Line" stroke-linecap="square"></path>
                <path d="M4.58578644,29.5857864 L15.5857864,32.5857864" id="Line" stroke-linecap="square" transform="translate(10.085786, 31.085786) scale(-1, 1) translate(-10.085786, -31.085786) "></path>
                <path d="M15.5857864,36.5857864 L23.5857864,38.5857864" id="Line" stroke-linecap="square"></path>
                <path d="M6.58578644,36.5857864 L14.5857864,38.5857864" id="Line" stroke-linecap="square" transform="translate(10.585786, 37.585786) scale(-1, 1) translate(-10.585786, -37.585786) "></path>
                <path d="M15.5857864,42.5857864 L20.5857864,43.5857864" id="Line" stroke-linecap="square"></path>
                <path d="M10.5857864,42.5857864 L15.5857864,43.5857864" id="Line" stroke-linecap="square" transform="translate(13.085786, 43.085786) scale(-1, 1) translate(-13.085786, -43.085786) "></path>
            </g>
        </g>
    </g>
</svg>